<svg width="300" height="100" xmlns="http://www.w3.org/2000/svg"><g stroke-linecap="round" fill="none" stroke="#000" stroke-width="2.48" stroke-linejoin="round"><path d="M109.5 28.5c-.72-.1-3.03 1.12-3 2 .07 1.16 2.86 5.34 4 6 1.1.59 3.11-.85 3-2-.11-.96-3.72-5.94-4-6zm-6 2c-.96-.45-3.38 1.08-3 2 .45 1.12 1.87 1.81 2 3 .03.32-21.31 1.07-29.46 1.67-2.19.14-3.67.98-3.67 2.26.05 1.17 1.61 2.44 3.13 2.68 4.74.64 20.22-.05 20.89-.04 1.6.05 4.34.77 5.11 1.43 1.03.98 1.49 3.24 1.13 5.4-.94 4.55-1.4 9.56-1.04 12.78.12 1.31-.45 2.6-1.41 2.81-.31.06-16.02.21-20.06.15-2.13-.01-2.71-.16-4.98-1.16-1.05-.45-3.07 1.23-3.42 2.93-.23 1.29.04 2.32.78 3.09.99.96 27.66.75 28 1 .6.44.53 1.43 1 2 1.07 1.3 4.94 1.97 6 1 .84-.83.72-22.36.85-29.36.02-2.16.43-3.75 1.39-5.48.83-1.58.59-3.37-.79-5.51-.95-1.42-1.77-2.31-2.45-2.65zm32 2c1.34-.98 5.09-1.02 6 0 .85 1.02.77 22.72.88 29.54.04 2.12.39 3.43 1.26 3.61.14.02 11.4-.78 12.87-.8 1.51-.02 5.06.3 5.99.65 1.72.71 3.17 2.81 2.74 4.15-.44 1.18-2.24 2.09-4.24 2.33-6.01.68-22.01.64-23.05.66-2.14-.01-3.33-.54-3.57-1.71-.02-.14.18-21.54.15-30.55 0-2.78.17-7.24.97-7.88zm44 0c3.04-.76 11.56-.11 14 1 1.91.92 4.26 2.97 5.9 5.07 1.47 1.93 2.78 4.05 3.64 5.88 1.41 3.11 1.46 8.99.71 13.4-.45 2.41-1.37 5.38-2.23 6.93-.9 1.54-3.17 3.87-4.71 4.83-2.51 1.5-11.68 3.73-13.31 3.89-2.11.18-4.47-.09-5.76-.7-2.09-1.05-7.84-6.2-9.24-9.3-.99-2.28-2.09-11.26-2-14 .09-1.93.75-5.62 1.32-7 2.44-5.62 10.15-9.59 11.68-10zm43 0c2.65-.43 11.23-.18 14 1 2.2.99 5.75 3.75 7.05 5.49 1.05 1.51.77 3.54-.57 4.17-1.41.59-5.13.78-6.48.34-1.41-.49-2.99-2.47-3.76-3.56-.85-.93-3.55-1.87-5.4-1.85-2.4.1-5.36 1.58-6.84 3.41-1.31 1.71-2.72 8.6-2.99 13.01-.09 1.8.19 5.34.61 6.9.49 1.71 2.51 3.51 4.38 4.09 2.46.68 13.18-.32 14-1 .75-.67.03-3.31 0-4-.06-.66.53-1.6 0-2 0 0-5.12-.18-6-1-.67-.63-1.49-5.55-1-6 .18-.15 4.03.07 6.44-.19 2.82-.23 7.27-.92 7.56-.81.71.31 1.06 3.66 1.1 4.49.02.87.6 11.76-.1 13.51-.83 1.9-2.47 3.03-4.89 3.43-1.95.29-10.34 1.91-13.11 1.57-2.47-.33-10.15-3.34-12-5-1.46-1.36-3.19-4.13-3.96-6.32-1.11-3.35-1.81-10.03-1.59-12.73.33-3.3 3.9-9.86 6.55-12.95 2.18-2.43 5.21-3.68 7-4zm40 0c1.29-.43 7.65-.05 11.25.45 2.64.4 5.11 1.3 6.75 2.55 2.03 1.61 6.15 8.8 7 12 .75 2.97.42 10.4 0 12-.81 2.97-5.81 9.72-6.33 10.21-2.06 1.86-8.3 3.43-11.83 3.73-3.41.24-8.19-1.06-10.84-2.94-2.45-1.79-7.28-7-8.21-9.44-.79-2.22-.76-7.81-.19-11.6.63-3.95 2.42-8.53 4.61-11.06 2.5-2.78 6.29-5.37 7.79-5.9zm-241 3c.04-.02 24.48.32 28 0 2.97-.24 5.76-1.33 6.51-1.05.87.37 1.64 2.52 1.78 4.49.67 12.77-.01 33.18-.29 33.56-1.11 1.46-4.91 2.09-6 1-.06-.06-1.15-3.5-2-4-.42-.24-7.93-.48-14.09-.27-5.79.25-7.63.62-7.91 1.27-.26.61.34 1.43 0 2-.72 1.22-4.98 1.95-6 1-.75-.75-.93-21.71-.94-30.4 0-2.54.2-7.17.94-7.6z"/><path d="M182.5 38.5c2.34-.28 9.99 2.77 12 5 .99 1.16 2.2 3.93 2.46 5.55.43 3.21-1.4 9.64-3.67 12.9-1.06 1.45-3.62 3.98-4.79 4.55-1.78.8-5.35.89-7.11.11-1.57-.76-3.78-3.09-4.49-4.62-.95-2.21-2.59-10.14-2.58-12.65.04-2.54 3.01-8.28 5.05-9.7.88-.58 1.92-.96 3.13-1.14zm84 0c1.26-.26 4.16.06 5.51.57 1.41.58 3.58 2.33 4.59 3.7 1.99 2.8 3.6 8.12 3.35 11.02-.28 2.62-2.77 9.17-4.45 10.71-.97.85-3.62 1.91-5.11 2.09-1.52.14-4.24-.35-5.83-1.04-1.68-.79-4.22-2.77-5.06-4.05-1.38-2.21-2.13-10.2-1.76-12.98.24-1.56 1.05-3.95 1.76-5.02 1.59-2.27 5.73-4.7 7-5zm-238 3c.23-.12 9.99.16 13.12.13 2.1.01 7.06-.82 7.1-.82 1.19.16 1.96 2.2 2.08 4.16.2 4.27.14 10.57-.07 15.06-.1 2.08-.6 3.44-1.57 3.63-.02.01-20.08 0-20.66-.16-1.01-.32-1.22-1.4-1-4 .06-.62.13-12.83.09-13.53-.11-2.31.16-4.02.91-4.47z"/></g></svg>