<?xml version="1.0" encoding="UTF-8" standalone="no"?>
<!DOCTYPE svg PUBLIC "-//W3C//DTD SVG 1.1//EN" "http://www.w3.org/Graphics/SVG/1.1/DTD/svg11.dtd">
<svg width="300.00" height="100.00" viewBox="0.00 0.00 300.00 100.00" xmlns="http://www.w3.org/2000/svg" xmlns:xlink="http://www.w3.org/1999/xlink">
<g stroke-linecap="round" id="ロゴ_LOGO_2_2">
<path d="M109.50,28.50 C108.78,28.40 106.47,29.62 106.50,30.50 C106.57,31.66 109.36,35.84 110.50,36.50 C111.60,37.09 113.61,35.65 113.50,34.50 C113.39,33.54 109.78,28.56 109.50,28.50 Z" fill="none" stroke="rgb(0, 0, 0)" stroke-width="2.48" stroke-opacity="1.00" stroke-linejoin="round"/>
<path d="M103.50,30.50 C102.54,30.05 100.12,31.58 100.50,32.50 C100.95,33.62 102.37,34.31 102.50,35.50 C102.53,35.82 81.19,36.57 73.04,37.17 C70.85,37.31 69.37,38.15 69.37,39.43 C69.42,40.60 70.98,41.87 72.50,42.11 C77.24,42.75 92.72,42.06 93.39,42.07 C94.99,42.12 97.73,42.84 98.50,43.50 C99.53,44.48 99.99,46.74 99.63,48.90 C98.69,53.45 98.23,58.46 98.59,61.68 C98.71,62.99 98.14,64.28 97.18,64.49 C96.87,64.55 81.16,64.70 77.12,64.64 C74.99,64.63 74.41,64.48 72.14,63.48 C71.09,63.03 69.07,64.71 68.72,66.41 C68.49,67.70 68.76,68.73 69.50,69.50 C70.49,70.46 97.16,70.25 97.50,70.50 C98.10,70.94 98.03,71.93 98.50,72.50 C99.57,73.80 103.44,74.47 104.50,73.50 C105.34,72.67 105.22,51.14 105.35,44.14 C105.37,41.98 105.78,40.39 106.74,38.66 C107.57,37.08 107.33,35.29 105.95,33.15 C105.00,31.73 104.18,30.84 103.50,30.50 Z" fill="none" stroke="rgb(0, 0, 0)" stroke-width="2.48" stroke-opacity="1.00" stroke-linejoin="round"/>
<path d="M135.50,32.50 C136.84,31.52 140.59,31.48 141.50,32.50 C142.35,33.52 142.27,55.22 142.38,62.04 C142.42,64.16 142.77,65.47 143.64,65.65 C143.78,65.67 155.04,64.87 156.51,64.85 C158.02,64.83 161.57,65.15 162.50,65.50 C164.22,66.21 165.67,68.31 165.24,69.65 C164.80,70.83 163.00,71.74 161.00,71.98 C154.99,72.66 138.99,72.62 137.95,72.64 C135.81,72.63 134.62,72.10 134.38,70.93 C134.36,70.79 134.56,49.39 134.53,40.38 C134.53,37.60 134.70,33.14 135.50,32.50 Z" fill="none" stroke="rgb(0, 0, 0)" stroke-width="2.48" stroke-opacity="1.00" stroke-linejoin="round"/>
<path d="M179.50,32.50 C182.54,31.74 191.06,32.39 193.50,33.50 C195.41,34.42 197.76,36.47 199.40,38.57 C200.87,40.50 202.18,42.62 203.04,44.45 C204.45,47.56 204.50,53.44 203.75,57.85 C203.30,60.26 202.38,63.23 201.52,64.78 C200.62,66.32 198.35,68.65 196.81,69.61 C194.30,71.11 185.13,73.34 183.50,73.50 C181.39,73.68 179.03,73.41 177.74,72.80 C175.65,71.75 169.90,66.60 168.50,63.50 C167.51,61.22 166.41,52.24 166.50,49.50 C166.59,47.57 167.25,43.88 167.82,42.50 C170.26,36.88 177.97,32.91 179.50,32.50 Z" fill="none" stroke="rgb(0, 0, 0)" stroke-width="2.48" stroke-opacity="1.00" stroke-linejoin="round"/>
<path d="M222.50,32.50 C225.15,32.07 233.73,32.32 236.50,33.50 C238.70,34.49 242.25,37.25 243.55,38.99 C244.60,40.50 244.32,42.53 242.98,43.16 C241.57,43.75 237.85,43.94 236.50,43.50 C235.09,43.01 233.51,41.03 232.74,39.94 C231.89,39.01 229.19,38.07 227.34,38.09 C224.94,38.19 221.98,39.67 220.50,41.50 C219.19,43.21 217.78,50.10 217.51,54.51 C217.42,56.31 217.70,59.85 218.12,61.41 C218.61,63.12 220.63,64.92 222.50,65.50 C224.96,66.18 235.68,65.18 236.50,64.50 C237.25,63.83 236.53,61.19 236.50,60.50 C236.44,59.84 237.03,58.90 236.50,58.50 C236.50,58.50 231.38,58.32 230.50,57.50 C229.83,56.87 229.01,51.95 229.50,51.50 C229.68,51.35 233.53,51.57 235.94,51.31 C238.76,51.08 243.21,50.39 243.50,50.50 C244.21,50.81 244.56,54.16 244.60,54.99 C244.62,55.86 245.20,66.75 244.50,68.50 C243.67,70.40 242.03,71.53 239.61,71.93 C237.66,72.22 229.27,73.84 226.50,73.50 C224.03,73.17 216.35,70.16 214.50,68.50 C213.04,67.14 211.31,64.37 210.54,62.18 C209.43,58.83 208.73,52.15 208.95,49.45 C209.28,46.15 212.85,39.59 215.50,36.50 C217.68,34.07 220.71,32.82 222.50,32.50 Z" fill="none" stroke="rgb(0, 0, 0)" stroke-width="2.48" stroke-opacity="1.00" stroke-linejoin="round"/>
<path d="M262.50,32.50 C263.79,32.07 270.15,32.45 273.75,32.95 C276.39,33.35 278.86,34.25 280.50,35.50 C282.53,37.11 286.65,44.30 287.50,47.50 C288.25,50.47 287.92,57.90 287.50,59.50 C286.69,62.47 281.69,69.22 281.17,69.71 C279.11,71.57 272.87,73.14 269.34,73.44 C265.93,73.68 261.15,72.38 258.50,70.50 C256.05,68.71 251.22,63.50 250.29,61.06 C249.50,58.84 249.53,53.25 250.10,49.46 C250.73,45.51 252.52,40.93 254.71,38.40 C257.21,35.62 261.00,33.03 262.50,32.50 Z" fill="none" stroke="rgb(0, 0, 0)" stroke-width="2.48" stroke-opacity="1.00" stroke-linejoin="round"/>
<path d="M21.50,35.50 C21.54,35.48 45.98,35.82 49.50,35.50 C52.47,35.26 55.26,34.17 56.01,34.45 C56.88,34.82 57.65,36.97 57.79,38.94 C58.46,51.71 57.78,72.12 57.50,72.50 C56.39,73.96 52.59,74.59 51.50,73.50 C51.44,73.44 50.35,70.00 49.50,69.50 C49.08,69.26 41.57,69.02 35.41,69.23 C29.62,69.48 27.78,69.85 27.50,70.50 C27.24,71.11 27.84,71.93 27.50,72.50 C26.78,73.72 22.52,74.45 21.50,73.50 C20.75,72.75 20.57,51.79 20.56,43.10 C20.56,40.56 20.76,35.93 21.50,35.50 Z" fill="none" stroke="rgb(0, 0, 0)" stroke-width="2.48" stroke-opacity="1.00" stroke-linejoin="round"/>
<path d="M182.50,38.50 C184.84,38.22 192.49,41.27 194.50,43.50 C195.49,44.66 196.70,47.43 196.96,49.05 C197.39,52.26 195.56,58.69 193.29,61.95 C192.23,63.40 189.67,65.93 188.50,66.50 C186.72,67.30 183.15,67.39 181.39,66.61 C179.82,65.85 177.61,63.52 176.90,61.99 C175.95,59.78 174.31,51.85 174.32,49.34 C174.36,46.80 177.33,41.06 179.37,39.64 C180.25,39.06 181.29,38.68 182.50,38.50 Z" fill="none" stroke="rgb(0, 0, 0)" stroke-width="2.48" stroke-opacity="1.00" stroke-linejoin="round"/>
<path d="M266.50,38.50 C267.76,38.24 270.66,38.56 272.01,39.07 C273.42,39.65 275.59,41.40 276.60,42.77 C278.59,45.57 280.20,50.89 279.95,53.79 C279.67,56.41 277.18,62.96 275.50,64.50 C274.53,65.35 271.88,66.41 270.39,66.59 C268.87,66.73 266.15,66.24 264.56,65.55 C262.88,64.76 260.34,62.78 259.50,61.50 C258.12,59.29 257.37,51.30 257.74,48.52 C257.98,46.96 258.79,44.57 259.50,43.50 C261.09,41.23 265.23,38.80 266.50,38.50 Z" fill="none" stroke="rgb(0, 0, 0)" stroke-width="2.48" stroke-opacity="1.00" stroke-linejoin="round"/>
<path d="M28.50,41.50 C28.73,41.38 38.49,41.66 41.62,41.63 C43.72,41.64 48.68,40.81 48.72,40.81 C49.91,40.97 50.68,43.01 50.80,44.97 C51.00,49.24 50.94,55.54 50.73,60.03 C50.63,62.11 50.13,63.47 49.16,63.66 C49.14,63.67 29.08,63.66 28.50,63.50 C27.49,63.18 27.28,62.10 27.50,59.50 C27.56,58.88 27.63,46.67 27.59,45.97 C27.48,43.66 27.75,41.95 28.50,41.50 Z" fill="none" stroke="rgb(0, 0, 0)" stroke-width="2.48" stroke-opacity="1.00" stroke-linejoin="round"/>
</g>
</svg>
